<?xml version="1.0" encoding="UTF-8"?><svg id="Layer_2" xmlns="http://www.w3.org/2000/svg" viewBox="0 0 25 24.09"><defs><style>.cls-1{fill:#fff;}</style></defs><g id="Layer_1-2"><g><g><path d="M.79,9.81c-.32,0-.6-.15-.71-.4-.11-.25-.04-.51,.21-.69L12,.18c.14-.1,.32-.16,.5-.16s.37,.06,.5,.16l11.71,8.54c.24,.18,.32,.44,.21,.69s-.39,.4-.71,.4H.79Z"/><path class="cls-1" d="M12.5,.05c.18,0,.35,.05,.49,.15l11.71,8.54c.28,.2,.29,.48,.2,.66-.09,.19-.31,.39-.68,.39H.79c-.37,0-.6-.2-.68-.39-.09-.19-.08-.46,.2-.66L12.01,.2c.13-.1,.31-.15,.49-.15m0-.05c-.19,0-.37,.05-.52,.16L.27,8.7c-.54,.4-.2,1.13,.52,1.13H24.21c.72,0,1.07-.74,.52-1.13L13.02,.16c-.15-.11-.34-.16-.52-.16h0Z"/></g><g><path d="M.79,14.28c-.32,0-.6,.15-.71,.4-.11,.25-.04,.51,.21,.69l11.71,8.54c.14,.1,.32,.16,.5,.16s.37-.06,.5-.16l11.71-8.54c.24-.18,.32-.44,.21-.69s-.39-.4-.71-.4H.79Z"/><path class="cls-1" d="M12.5,24.04c-.18,0-.35-.05-.49-.15L.3,15.35c-.28-.2-.29-.48-.2-.66,.09-.19,.31-.39,.68-.39H24.21c.37,0,.6,.2,.68,.39,.09,.19,.08,.46-.2,.66l-11.71,8.54c-.13,.1-.31,.15-.49,.15m0,.05c.19,0,.37-.05,.52-.16l11.71-8.54c.54-.4,.2-1.13-.52-1.13H.79c-.72,0-1.07,.74-.52,1.13l11.71,8.54c.15,.11,.34,.16,.52,.16h0Z"/></g></g></g></svg>